Coordinates
version=1
nRows=16
nColumns=22
inDegrees=yes

Units are S.I. units (second, meters, Newtons, ...)
If the header above contains a line with 'inDegrees', this indicates whether rotational values are in degrees (yes) or radians (no).

endheader
time	pelvis_tilt	pelvis_list	pelvis_rotation	pelvis_tx	pelvis_ty	pelvis_tz	hip_flexion_r	hip_adduction_r	hip_rotation_r	knee_angle_r	ankle_angle_r	subtalar_angle_r	hip_flexion_l	hip_adduction_l	hip_rotation_l	knee_angle_l	ankle_angle_l	subtalar_angle_l	lumbar_extension	lumbar_bending	lumbar_rotation
      1.69000000	    -11.42306375	     -0.13470645	     -1.60931775	     -0.50295346	      0.97429602	      0.37564563	     32.72758220	     -1.43887862	     -1.89160798	    -36.33822031	     18.49033708	     -3.53416896	     17.84203266	      5.03484592	     -5.87960653	    -17.99350402	     19.19734139	     -5.63154631	      1.15229320	      0.65325030	      1.97591523
      1.70000000	    -11.42503414	     -0.19132177	     -1.58569426	     -0.50187797	      0.97430117	      0.37546924	     32.99250958	     -1.31867088	     -1.88350938	    -35.99559465	     18.35133916	     -3.50305404	     17.79267681	      4.99474279	     -5.84985054	    -18.02876325	     19.25551566	     -5.64674634	      1.09678045	      0.71353185	      1.87832550
      1.71000000	    -11.42496129	     -0.24519039	     -1.57449005	     -0.50076392	      0.97430340	      0.37533975	     33.26101790	     -1.19541260	     -1.87318968	    -35.63528738	     18.20652772	     -3.47958175	     17.73494497	      4.95331450	     -5.82483553	    -18.05716239	     19.31614544	     -5.66210121	      1.03692101	      0.77083901	      1.79751566
      1.72000000	    -11.42199538	     -0.29919451	     -1.57476190	     -0.49960151	      0.97430740	      0.37526632	     33.53104758	     -1.06519628	     -1.86166267	    -35.26062978	     18.05002405	     -3.46040162	     17.66705315	      4.90737328	     -5.80470479	    -18.07868670	     19.38156909	     -5.67863443	      0.97397081	      0.82581385	      1.72783088
      1.73000000	    -11.41775501	     -0.36225025	     -1.58264195	     -0.49839267	      0.97431047	      0.37523128	     33.80191268	     -0.92343886	     -1.86131476	    -34.87164536	     17.87145241	     -3.44702080	     17.59676777	      4.84744406	     -5.79379126	    -18.10564649	     19.45839760	     -5.70155892	      0.90941383	      0.89425552	      1.66519968
      1.74000000	    -11.40953484	     -0.42389452	     -1.59992918	     -0.49714224	      0.97432291	      0.37526003	     34.07429885	     -0.77513212	     -1.85692202	    -34.47639947	     17.65219755	     -3.43205463	     17.51288904	      4.78539048	     -5.77413696	    -18.12055790	     19.53163211	     -5.72333308	      0.83927156	      0.95339389	      1.62098000
      1.75000000	    -11.39955471	     -0.49608267	     -1.62350194	     -0.49584987	      0.97433736	      0.37532067	     34.34569758	     -0.61516540	     -1.86660828	    -34.06998150	     17.39045016	     -3.41733410	     17.42881199	      4.70841299	     -5.76128509	    -18.14559914	     19.61412235	     -5.75090523	      0.76615672	      1.02785898	      1.58087578
      1.76000000	    -11.38931565	     -0.56880219	     -1.64905151	     -0.49451524	      0.97435266	      0.37543018	     34.61965430	     -0.45243862	     -1.88339065	    -33.65866711	     17.08165749	     -3.39294021	     17.34027621	      4.62788138	     -5.74558427	    -18.16859724	     19.69779970	     -5.77816239	      0.69177351	      1.09683889	      1.54499957
      1.77000000	    -11.37976517	     -0.64936415	     -1.67776550	     -0.49314323	      0.97436266	      0.37555536	     34.89355910	     -0.28486542	     -1.91823097	    -33.23669246	     16.72942728	     -3.35332890	     17.25634060	      4.53628816	     -5.73469954	    -18.20530968	     19.79069147	     -5.80735652	      0.61654918	      1.17940963	      1.51228608
      1.78000000	    -11.37082049	     -0.72857241	     -1.70627145	     -0.49173297	      0.97436525	      0.37571440	     35.16901253	     -0.12023108	     -1.96538261	    -32.80993342	     16.34469630	     -3.28752316	     17.17199319	      4.44326889	     -5.72415771	    -18.24487175	     19.88887026	     -5.83274416	      0.54088510	      1.25578805	      1.48216726
      1.79000000	    -11.36564736	     -0.81882098	     -1.73135014	     -0.49026945	      0.97435355	      0.37589685	     35.44184326	      0.05101444	     -2.02884827	    -32.37044289	     15.95652650	     -3.17865769	     17.09111642	      4.33482764	     -5.72744807	    -18.29049666	     20.00631553	     -5.85765398	      0.47101966	      1.34591447	      1.43527131
      1.80000000	    -11.35752944	     -0.89367237	     -1.75593688	     -0.48877039	      0.97433361	      0.37609875	     35.71421830	      0.20431790	     -2.09597123	    -31.93136287	     15.56947341	     -3.01489657	     17.00204607	      4.24268845	     -5.72460406	    -18.33005493	     20.12045945	     -5.87307743	      0.39581010	      1.41442560	      1.40164168
      1.81000000	    -11.34451087	     -0.94635157	     -1.78178181	     -0.48723468	      0.97430732	      0.37631097	     35.98578444	      0.33308518	     -2.16048649	    -31.49572487	     15.19082625	     -2.83343744	     16.89833810	      4.17531432	     -5.71572844	    -18.35453132	     20.22250794	     -5.88086935	      0.31332623	      1.45563852	      1.38501313
      1.82000000	    -11.33183409	     -1.00922986	     -1.80352609	     -0.48561539	      0.97426754	      0.37652277	     36.24409524	      0.46496221	     -2.23948594	    -31.04329507	     14.89219797	     -2.53819968	     16.78626786	      4.09507572	     -5.73314669	    -18.37175055	     20.34831651	     -5.88799874	      0.23744516	      1.51764548	      1.32885861
      1.83000000	    -11.31510217	     -1.04078872	     -1.82574364	     -0.48395659	      0.97421588	      0.37674301	     36.50355132	      0.56322671	     -2.31165253	    -30.59832600	     14.62366018	     -2.23055256	     16.65877941	      4.05089946	     -5.73933129	    -18.37078792	     20.45651925	     -5.89090321	      0.15642042	      1.54021616	      1.28805087
      1.84000000	    -11.30073680	     -1.04273654	     -1.84648433	     -0.48225894	      0.97413752	      0.37697252	     36.76960687	      0.63037095	     -2.37564744	    -30.16028970	     14.36580813	     -2.02986877	     16.52633694	      4.04047484	     -5.73141965	    -18.35970831	     20.55582879	     -5.89213498	      0.07800142	      1.52660244	      1.26460809
